<svg width="85" height="85" viewBox="0 0 85 85" fill="none" xmlns="http://www.w3.org/2000/svg">
<path d="M35.0185 43.4695C34.4018 43.4695 33.8937 43.636 33.8576 44.1518C33.8031 44.8508 33.658 45.9324 32.0073 45.9324C30.7556 45.9324 30.0663 45.3168 30.0663 44.0187V39.3759C30.0661 38.078 30.7554 37.4622 31.9708 37.4622C33.694 37.4622 33.821 38.5938 33.8574 39.1096C33.8755 39.6088 34.3654 39.7919 35.0366 39.7919C35.8346 39.7919 36.2156 39.5922 36.2156 38.727C36.2156 36.7967 34.4199 35.5652 31.8984 35.5652C29.6127 35.5652 27.708 36.597 27.708 39.3759V44.0187C27.708 46.7978 29.5946 47.8294 31.8801 47.8294C34.4199 47.8294 36.2156 46.5481 36.2156 44.5345C36.2156 43.6858 35.8348 43.4695 35.0185 43.4695Z" fill="#489E81"/>
<path d="M42.3456 35.5652H38.6994C38.1552 35.5652 37.8105 35.8813 37.8105 36.2309V47.0475C37.8105 47.4967 38.3911 47.7298 38.9896 47.7298C39.57 47.7298 40.1686 47.4967 40.1686 47.0475V43.1868H42.2003C44.5949 43.1868 46.4633 42.1384 46.4633 39.4093V39.3093C46.4633 36.5802 44.6492 35.5652 42.3456 35.5652ZM44.105 39.5758C44.105 40.8739 43.3794 41.4896 42.2003 41.4896H40.1686V37.4622H42.2003C43.3795 37.4622 44.105 38.078 44.105 39.3761V39.5758Z" fill="#489E81"/>
<path d="M55.3885 35.5652C54.7898 35.5652 54.2095 35.7649 54.2095 36.2309V44.0189C54.2095 45.3169 53.4657 45.9325 52.2141 45.9325C50.9624 45.9325 50.2186 45.3169 50.2186 44.0189V36.2309C50.2186 35.7649 49.62 35.5652 49.0396 35.5652C48.4409 35.5652 47.8604 35.7649 47.8604 36.2309V44.0189C47.8604 46.798 49.765 47.8296 52.2139 47.8296C54.6447 47.8296 56.5675 46.7978 56.5675 44.0189V36.2309C56.5675 35.7649 55.9689 35.5652 55.3885 35.5652Z" fill="#489E81"/>
<path d="M11.1226 11.8999C11.8606 11.8999 12.459 11.3016 12.459 10.5635C12.459 9.82539 11.8606 9.22705 11.1226 9.22705C10.3845 9.22705 9.78613 9.82539 9.78613 10.5635C9.78613 11.3016 10.3845 11.8999 11.1226 11.8999Z" fill="#489E81"/>
<path d="M16.8071 11.8999C17.5452 11.8999 18.1436 11.3016 18.1436 10.5635C18.1436 9.82539 17.5452 9.22705 16.8071 9.22705C16.069 9.22705 15.4707 9.82539 15.4707 10.5635C15.4707 11.3016 16.069 11.8999 16.8071 11.8999Z" fill="#489E81"/>
<path d="M22.4937 11.8999C23.2317 11.8999 23.8301 11.3016 23.8301 10.5635C23.8301 9.82539 23.2317 9.22705 22.4937 9.22705C21.7556 9.22705 21.1572 9.82539 21.1572 10.5635C21.1572 11.3016 21.7556 11.8999 22.4937 11.8999Z" fill="#489E81"/>
<path d="M28.1782 11.8999C28.9163 11.8999 29.5147 11.3016 29.5147 10.5635C29.5147 9.82539 28.9163 9.22705 28.1782 9.22705C27.4401 9.22705 26.8418 9.82539 26.8418 10.5635C26.8418 11.3016 27.4401 11.8999 28.1782 11.8999Z" fill="#489E81"/>
<path d="M33.8618 11.8999C34.5999 11.8999 35.1982 11.3016 35.1982 10.5635C35.1982 9.82539 34.5999 9.22705 33.8618 9.22705C33.1237 9.22705 32.5254 9.82539 32.5254 10.5635C32.5254 11.3016 33.1237 11.8999 33.8618 11.8999Z" fill="#489E81"/>
<path d="M39.5464 11.8999C40.2845 11.8999 40.8828 11.3016 40.8828 10.5635C40.8828 9.82539 40.2845 9.22705 39.5464 9.22705C38.8083 9.22705 38.21 9.82539 38.21 10.5635C38.21 11.3016 38.8083 11.8999 39.5464 11.8999Z" fill="#489E81"/>
<path d="M45.231 11.8999C45.9691 11.8999 46.5674 11.3016 46.5674 10.5635C46.5674 9.82539 45.9691 9.22705 45.231 9.22705C44.4929 9.22705 43.8945 9.82539 43.8945 10.5635C43.8945 11.3016 44.4929 11.8999 45.231 11.8999Z" fill="#489E81"/>
<path d="M50.9155 11.8999C51.6536 11.8999 52.2519 11.3016 52.2519 10.5635C52.2519 9.82539 51.6536 9.22705 50.9155 9.22705C50.1774 9.22705 49.5791 9.82539 49.5791 10.5635C49.5791 11.3016 50.1774 11.8999 50.9155 11.8999Z" fill="#489E81"/>
<path d="M56.6011 11.8999C57.3392 11.8999 57.9375 11.3016 57.9375 10.5635C57.9375 9.82539 57.3392 9.22705 56.6011 9.22705C55.863 9.22705 55.2646 9.82539 55.2646 10.5635C55.2646 11.3016 55.863 11.8999 56.6011 11.8999Z" fill="#489E81"/>
<path d="M62.2856 11.8999C63.0237 11.8999 63.6221 11.3016 63.6221 10.5635C63.6221 9.82539 63.0237 9.22705 62.2856 9.22705C61.5476 9.22705 60.9492 9.82539 60.9492 10.5635C60.9492 11.3016 61.5476 11.8999 62.2856 11.8999Z" fill="#489E81"/>
<path d="M67.9702 11.8999C68.7083 11.8999 69.3066 11.3016 69.3066 10.5635C69.3066 9.82539 68.7083 9.22705 67.9702 9.22705C67.2321 9.22705 66.6338 9.82539 66.6338 10.5635C66.6338 11.3016 67.2321 11.8999 67.9702 11.8999Z" fill="#489E81"/>
<path d="M73.6548 11.8999C74.3929 11.8999 74.9912 11.3016 74.9912 10.5635C74.9912 9.82539 74.3929 9.22705 73.6548 9.22705C72.9167 9.22705 72.3184 9.82539 72.3184 10.5635C72.3184 11.3016 72.9167 11.8999 73.6548 11.8999Z" fill="#489E81"/>
<path d="M11.1226 17.6575C11.8606 17.6575 12.459 17.0591 12.459 16.321C12.459 15.583 11.8606 14.9846 11.1226 14.9846C10.3845 14.9846 9.78613 15.583 9.78613 16.321C9.78613 17.0591 10.3845 17.6575 11.1226 17.6575Z" fill="#489E81"/>
<path d="M16.8071 17.6575C17.5452 17.6575 18.1436 17.0591 18.1436 16.321C18.1436 15.583 17.5452 14.9846 16.8071 14.9846C16.069 14.9846 15.4707 15.583 15.4707 16.321C15.4707 17.0591 16.069 17.6575 16.8071 17.6575Z" fill="#489E81"/>
<path d="M22.4937 17.6575C23.2317 17.6575 23.8301 17.0591 23.8301 16.321C23.8301 15.583 23.2317 14.9846 22.4937 14.9846C21.7556 14.9846 21.1572 15.583 21.1572 16.321C21.1572 17.0591 21.7556 17.6575 22.4937 17.6575Z" fill="#489E81"/>
<path d="M28.1782 17.6575C28.9163 17.6575 29.5147 17.0591 29.5147 16.321C29.5147 15.583 28.9163 14.9846 28.1782 14.9846C27.4401 14.9846 26.8418 15.583 26.8418 16.321C26.8418 17.0591 27.4401 17.6575 28.1782 17.6575Z" fill="#489E81"/>
<path d="M33.8618 17.6575C34.5999 17.6575 35.1982 17.0591 35.1982 16.321C35.1982 15.583 34.5999 14.9846 33.8618 14.9846C33.1237 14.9846 32.5254 15.583 32.5254 16.321C32.5254 17.0591 33.1237 17.6575 33.8618 17.6575Z" fill="#489E81"/>
<path d="M39.5464 17.6575C40.2845 17.6575 40.8828 17.0591 40.8828 16.321C40.8828 15.583 40.2845 14.9846 39.5464 14.9846C38.8083 14.9846 38.21 15.583 38.21 16.321C38.21 17.0591 38.8083 17.6575 39.5464 17.6575Z" fill="#489E81"/>
<path d="M45.231 17.6575C45.9691 17.6575 46.5674 17.0591 46.5674 16.321C46.5674 15.583 45.9691 14.9846 45.231 14.9846C44.4929 14.9846 43.8945 15.583 43.8945 16.321C43.8945 17.0591 44.4929 17.6575 45.231 17.6575Z" fill="#489E81"/>
<path d="M50.9155 17.6575C51.6536 17.6575 52.2519 17.0591 52.2519 16.321C52.2519 15.583 51.6536 14.9846 50.9155 14.9846C50.1774 14.9846 49.5791 15.583 49.5791 16.321C49.5791 17.0591 50.1774 17.6575 50.9155 17.6575Z" fill="#489E81"/>
<path d="M56.6011 17.6575C57.3392 17.6575 57.9375 17.0591 57.9375 16.321C57.9375 15.583 57.3392 14.9846 56.6011 14.9846C55.863 14.9846 55.2646 15.583 55.2646 16.321C55.2646 17.0591 55.863 17.6575 56.6011 17.6575Z" fill="#489E81"/>
<path d="M62.2856 17.6575C63.0237 17.6575 63.6221 17.0591 63.6221 16.321C63.6221 15.583 63.0237 14.9846 62.2856 14.9846C61.5476 14.9846 60.9492 15.583 60.9492 16.321C60.9492 17.0591 61.5476 17.6575 62.2856 17.6575Z" fill="#489E81"/>
<path d="M67.9702 17.6575C68.7083 17.6575 69.3066 17.0591 69.3066 16.321C69.3066 15.583 68.7083 14.9846 67.9702 14.9846C67.2321 14.9846 66.6338 15.583 66.6338 16.321C66.6338 17.0591 67.2321 17.6575 67.9702 17.6575Z" fill="#489E81"/>
<path d="M73.6548 17.6575C74.3929 17.6575 74.9912 17.0591 74.9912 16.321C74.9912 15.583 74.3929 14.9846 73.6548 14.9846C72.9167 14.9846 72.3184 15.583 72.3184 16.321C72.3184 17.0591 72.9167 17.6575 73.6548 17.6575Z" fill="#489E81"/>
<path d="M11.1226 23.4663C11.8606 23.4663 12.459 22.868 12.459 22.1299C12.459 21.3918 11.8606 20.7935 11.1226 20.7935C10.3845 20.7935 9.78613 21.3918 9.78613 22.1299C9.78613 22.868 10.3845 23.4663 11.1226 23.4663Z" fill="#489E81"/>
<path d="M16.8071 23.4663C17.5452 23.4663 18.1436 22.868 18.1436 22.1299C18.1436 21.3918 17.5452 20.7935 16.8071 20.7935C16.069 20.7935 15.4707 21.3918 15.4707 22.1299C15.4707 22.868 16.069 23.4663 16.8071 23.4663Z" fill="#489E81"/>
<path d="M67.9702 23.4663C68.7083 23.4663 69.3066 22.868 69.3066 22.1299C69.3066 21.3918 68.7083 20.7935 67.9702 20.7935C67.2321 20.7935 66.6338 21.3918 66.6338 22.1299C66.6338 22.868 67.2321 23.4663 67.9702 23.4663Z" fill="#489E81"/>
<path d="M73.6548 23.4663C74.3929 23.4663 74.9912 22.868 74.9912 22.1299C74.9912 21.3918 74.3929 20.7935 73.6548 20.7935C72.9167 20.7935 72.3184 21.3918 72.3184 22.1299C72.3184 22.868 72.9167 23.4663 73.6548 23.4663Z" fill="#489E81"/>
<path d="M11.1226 29.2236C11.8606 29.2236 12.459 28.6253 12.459 27.8872C12.459 27.1491 11.8606 26.5508 11.1226 26.5508C10.3845 26.5508 9.78613 27.1491 9.78613 27.8872C9.78613 28.6253 10.3845 29.2236 11.1226 29.2236Z" fill="#489E81"/>
<path d="M16.8071 29.2236C17.5452 29.2236 18.1436 28.6253 18.1436 27.8872C18.1436 27.1491 17.5452 26.5508 16.8071 26.5508C16.069 26.5508 15.4707 27.1491 15.4707 27.8872C15.4707 28.6253 16.069 29.2236 16.8071 29.2236Z" fill="#489E81"/>
<path d="M67.9702 29.2236C68.7083 29.2236 69.3066 28.6253 69.3066 27.8872C69.3066 27.1491 68.7083 26.5508 67.9702 26.5508C67.2321 26.5508 66.6338 27.1491 66.6338 27.8872C66.6338 28.6253 67.2321 29.2236 67.9702 29.2236Z" fill="#489E81"/>
<path d="M73.6548 29.2236C74.3929 29.2236 74.9912 28.6253 74.9912 27.8872C74.9912 27.1491 74.3929 26.5508 73.6548 26.5508C72.9167 26.5508 72.3184 27.1491 72.3184 27.8872C72.3184 28.6253 72.9167 29.2236 73.6548 29.2236Z" fill="#489E81"/>
<path d="M11.1226 35.0327C11.8606 35.0327 12.459 34.4344 12.459 33.6963C12.459 32.9582 11.8606 32.3599 11.1226 32.3599C10.3845 32.3599 9.78613 32.9582 9.78613 33.6963C9.78613 34.4344 10.3845 35.0327 11.1226 35.0327Z" fill="#489E81"/>
<path d="M16.8071 35.0327C17.5452 35.0327 18.1436 34.4344 18.1436 33.6963C18.1436 32.9582 17.5452 32.3599 16.8071 32.3599C16.069 32.3599 15.4707 32.9582 15.4707 33.6963C15.4707 34.4344 16.069 35.0327 16.8071 35.0327Z" fill="#489E81"/>
<path d="M67.9702 35.0327C68.7083 35.0327 69.3066 34.4344 69.3066 33.6963C69.3066 32.9582 68.7083 32.3599 67.9702 32.3599C67.2321 32.3599 66.6338 32.9582 66.6338 33.6963C66.6338 34.4344 67.2321 35.0327 67.9702 35.0327Z" fill="#489E81"/>
<path d="M73.6548 35.0327C74.3929 35.0327 74.9912 34.4344 74.9912 33.6963C74.9912 32.9582 74.3929 32.3599 73.6548 32.3599C72.9167 32.3599 72.3184 32.9582 72.3184 33.6963C72.3184 34.4344 72.9167 35.0327 73.6548 35.0327Z" fill="#489E81"/>
<path d="M11.1226 40.79C11.8606 40.79 12.459 40.1917 12.459 39.4536C12.459 38.7155 11.8606 38.1172 11.1226 38.1172C10.3845 38.1172 9.78613 38.7155 9.78613 39.4536C9.78613 40.1917 10.3845 40.79 11.1226 40.79Z" fill="#489E81"/>
<path d="M16.8071 40.79C17.5452 40.79 18.1436 40.1917 18.1436 39.4536C18.1436 38.7155 17.5452 38.1172 16.8071 38.1172C16.069 38.1172 15.4707 38.7155 15.4707 39.4536C15.4707 40.1917 16.069 40.79 16.8071 40.79Z" fill="#489E81"/>
<path d="M67.9702 40.79C68.7083 40.79 69.3066 40.1917 69.3066 39.4536C69.3066 38.7155 68.7083 38.1172 67.9702 38.1172C67.2321 38.1172 66.6338 38.7155 66.6338 39.4536C66.6338 40.1917 67.2321 40.79 67.9702 40.79Z" fill="#489E81"/>
<path d="M73.6548 40.79C74.3929 40.79 74.9912 40.1917 74.9912 39.4536C74.9912 38.7155 74.3929 38.1172 73.6548 38.1172C72.9167 38.1172 72.3184 38.7155 72.3184 39.4536C72.3184 40.1917 72.9167 40.79 73.6548 40.79Z" fill="#489E81"/>
<path d="M11.1226 46.5989C11.8606 46.5989 12.459 46.0005 12.459 45.2625C12.459 44.5244 11.8606 43.926 11.1226 43.926C10.3845 43.926 9.78613 44.5244 9.78613 45.2625C9.78613 46.0005 10.3845 46.5989 11.1226 46.5989Z" fill="#489E81"/>
<path d="M16.8071 46.5989C17.5452 46.5989 18.1436 46.0005 18.1436 45.2625C18.1436 44.5244 17.5452 43.926 16.8071 43.926C16.069 43.926 15.4707 44.5244 15.4707 45.2625C15.4707 46.0005 16.069 46.5989 16.8071 46.5989Z" fill="#489E81"/>
<path d="M67.9702 46.5989C68.7083 46.5989 69.3066 46.0005 69.3066 45.2625C69.3066 44.5244 68.7083 43.926 67.9702 43.926C67.2321 43.926 66.6338 44.5244 66.6338 45.2625C66.6338 46.0005 67.2321 46.5989 67.9702 46.5989Z" fill="#489E81"/>
<path d="M73.6548 46.5989C74.3929 46.5989 74.9912 46.0005 74.9912 45.2625C74.9912 44.5244 74.3929 43.926 73.6548 43.926C72.9167 43.926 72.3184 44.5244 72.3184 45.2625C72.3184 46.0005 72.9167 46.5989 73.6548 46.5989Z" fill="#489E81"/>
<path d="M11.1226 52.3562C11.8606 52.3562 12.459 51.7579 12.459 51.0198C12.459 50.2817 11.8606 49.6833 11.1226 49.6833C10.3845 49.6833 9.78613 50.2817 9.78613 51.0198C9.78613 51.7579 10.3845 52.3562 11.1226 52.3562Z" fill="#489E81"/>
<path d="M16.8071 52.3562C17.5452 52.3562 18.1436 51.7579 18.1436 51.0198C18.1436 50.2817 17.5452 49.6833 16.8071 49.6833C16.069 49.6833 15.4707 50.2817 15.4707 51.0198C15.4707 51.7579 16.069 52.3562 16.8071 52.3562Z" fill="#489E81"/>
<path d="M67.9702 52.3562C68.7083 52.3562 69.3066 51.7579 69.3066 51.0198C69.3066 50.2817 68.7083 49.6833 67.9702 49.6833C67.2321 49.6833 66.6338 50.2817 66.6338 51.0198C66.6338 51.7579 67.2321 52.3562 67.9702 52.3562Z" fill="#489E81"/>
<path d="M73.6548 52.3562C74.3929 52.3562 74.9912 51.7579 74.9912 51.0198C74.9912 50.2817 74.3929 49.6833 73.6548 49.6833C72.9167 49.6833 72.3184 50.2817 72.3184 51.0198C72.3184 51.7579 72.9167 52.3562 73.6548 52.3562Z" fill="#489E81"/>
<path d="M11.1226 58.1653C11.8606 58.1653 12.459 57.5669 12.459 56.8289C12.459 56.0908 11.8606 55.4924 11.1226 55.4924C10.3845 55.4924 9.78613 56.0908 9.78613 56.8289C9.78613 57.5669 10.3845 58.1653 11.1226 58.1653Z" fill="#489E81"/>
<path d="M16.8071 58.1653C17.5452 58.1653 18.1436 57.5669 18.1436 56.8289C18.1436 56.0908 17.5452 55.4924 16.8071 55.4924C16.069 55.4924 15.4707 56.0908 15.4707 56.8289C15.4707 57.5669 16.069 58.1653 16.8071 58.1653Z" fill="#489E81"/>
<path d="M67.9702 58.1653C68.7083 58.1653 69.3066 57.5669 69.3066 56.8289C69.3066 56.0908 68.7083 55.4924 67.9702 55.4924C67.2321 55.4924 66.6338 56.0908 66.6338 56.8289C66.6338 57.5669 67.2321 58.1653 67.9702 58.1653Z" fill="#489E81"/>
<path d="M73.6548 58.1653C74.3929 58.1653 74.9912 57.5669 74.9912 56.8289C74.9912 56.0908 74.3929 55.4924 73.6548 55.4924C72.9167 55.4924 72.3184 56.0908 72.3184 56.8289C72.3184 57.5669 72.9167 58.1653 73.6548 58.1653Z" fill="#489E81"/>
<path d="M11.1226 63.9209C11.8606 63.9209 12.459 63.3226 12.459 62.5845C12.459 61.8464 11.8606 61.248 11.1226 61.248C10.3845 61.248 9.78613 61.8464 9.78613 62.5845C9.78613 63.3226 10.3845 63.9209 11.1226 63.9209Z" fill="#489E81"/>
<path d="M16.8071 63.9209C17.5452 63.9209 18.1436 63.3226 18.1436 62.5845C18.1436 61.8464 17.5452 61.248 16.8071 61.248C16.069 61.248 15.4707 61.8464 15.4707 62.5845C15.4707 63.3226 16.069 63.9209 16.8071 63.9209Z" fill="#489E81"/>
<path d="M67.9702 63.9209C68.7083 63.9209 69.3066 63.3226 69.3066 62.5845C69.3066 61.8464 68.7083 61.248 67.9702 61.248C67.2321 61.248 66.6338 61.8464 66.6338 62.5845C66.6338 63.3226 67.2321 63.9209 67.9702 63.9209Z" fill="#489E81"/>
<path d="M73.6548 63.9209C74.3929 63.9209 74.9912 63.3226 74.9912 62.5845C74.9912 61.8464 74.3929 61.248 73.6548 61.248C72.9167 61.248 72.3184 61.8464 72.3184 62.5845C72.3184 63.3226 72.9167 63.9209 73.6548 63.9209Z" fill="#489E81"/>
<path d="M11.1226 69.7314C11.8606 69.7314 12.459 69.1331 12.459 68.395C12.459 67.6569 11.8606 67.0586 11.1226 67.0586C10.3845 67.0586 9.78613 67.6569 9.78613 68.395C9.78613 69.1331 10.3845 69.7314 11.1226 69.7314Z" fill="#489E81"/>
<path d="M16.8071 69.7314C17.5452 69.7314 18.1436 69.1331 18.1436 68.395C18.1436 67.6569 17.5452 67.0586 16.8071 67.0586C16.069 67.0586 15.4707 67.6569 15.4707 68.395C15.4707 69.1331 16.069 69.7314 16.8071 69.7314Z" fill="#489E81"/>
<path d="M22.4937 69.7314C23.2317 69.7314 23.8301 69.1331 23.8301 68.395C23.8301 67.6569 23.2317 67.0586 22.4937 67.0586C21.7556 67.0586 21.1572 67.6569 21.1572 68.395C21.1572 69.1331 21.7556 69.7314 22.4937 69.7314Z" fill="#489E81"/>
<path d="M28.1782 69.7314C28.9163 69.7314 29.5147 69.1331 29.5147 68.395C29.5147 67.6569 28.9163 67.0586 28.1782 67.0586C27.4401 67.0586 26.8418 67.6569 26.8418 68.395C26.8418 69.1331 27.4401 69.7314 28.1782 69.7314Z" fill="#489E81"/>
<path d="M33.8618 69.7314C34.5999 69.7314 35.1982 69.1331 35.1982 68.395C35.1982 67.6569 34.5999 67.0586 33.8618 67.0586C33.1237 67.0586 32.5254 67.6569 32.5254 68.395C32.5254 69.1331 33.1237 69.7314 33.8618 69.7314Z" fill="#489E81"/>
<path d="M39.5464 69.7314C40.2845 69.7314 40.8828 69.1331 40.8828 68.395C40.8828 67.6569 40.2845 67.0586 39.5464 67.0586C38.8083 67.0586 38.21 67.6569 38.21 68.395C38.21 69.1331 38.8083 69.7314 39.5464 69.7314Z" fill="#489E81"/>
<path d="M45.231 69.7314C45.9691 69.7314 46.5674 69.1331 46.5674 68.395C46.5674 67.6569 45.9691 67.0586 45.231 67.0586C44.4929 67.0586 43.8945 67.6569 43.8945 68.395C43.8945 69.1331 44.4929 69.7314 45.231 69.7314Z" fill="#489E81"/>
<path d="M50.9155 69.7314C51.6536 69.7314 52.2519 69.1331 52.2519 68.395C52.2519 67.6569 51.6536 67.0586 50.9155 67.0586C50.1774 67.0586 49.5791 67.6569 49.5791 68.395C49.5791 69.1331 50.1774 69.7314 50.9155 69.7314Z" fill="#489E81"/>
<path d="M56.6011 69.7314C57.3392 69.7314 57.9375 69.1331 57.9375 68.395C57.9375 67.6569 57.3392 67.0586 56.6011 67.0586C55.863 67.0586 55.2646 67.6569 55.2646 68.395C55.2646 69.1331 55.863 69.7314 56.6011 69.7314Z" fill="#489E81"/>
<path d="M62.2856 69.7314C63.0237 69.7314 63.6221 69.1331 63.6221 68.395C63.6221 67.6569 63.0237 67.0586 62.2856 67.0586C61.5476 67.0586 60.9492 67.6569 60.9492 68.395C60.9492 69.1331 61.5476 69.7314 62.2856 69.7314Z" fill="#489E81"/>
<path d="M67.9702 69.7314C68.7083 69.7314 69.3066 69.1331 69.3066 68.395C69.3066 67.6569 68.7083 67.0586 67.9702 67.0586C67.2321 67.0586 66.6338 67.6569 66.6338 68.395C66.6338 69.1331 67.2321 69.7314 67.9702 69.7314Z" fill="#489E81"/>
<path d="M73.6548 69.7314C74.3929 69.7314 74.9912 69.1331 74.9912 68.395C74.9912 67.6569 74.3929 67.0586 73.6548 67.0586C72.9167 67.0586 72.3184 67.6569 72.3184 68.395C72.3184 69.1331 72.9167 69.7314 73.6548 69.7314Z" fill="#489E81"/>
<path d="M11.1226 75.4873C11.8606 75.4873 12.459 74.889 12.459 74.1509C12.459 73.4128 11.8606 72.8145 11.1226 72.8145C10.3845 72.8145 9.78613 73.4128 9.78613 74.1509C9.78613 74.889 10.3845 75.4873 11.1226 75.4873Z" fill="#489E81"/>
<path d="M16.8071 75.4873C17.5452 75.4873 18.1436 74.889 18.1436 74.1509C18.1436 73.4128 17.5452 72.8145 16.8071 72.8145C16.069 72.8145 15.4707 73.4128 15.4707 74.1509C15.4707 74.889 16.069 75.4873 16.8071 75.4873Z" fill="#489E81"/>
<path d="M22.4937 75.4873C23.2317 75.4873 23.8301 74.889 23.8301 74.1509C23.8301 73.4128 23.2317 72.8145 22.4937 72.8145C21.7556 72.8145 21.1572 73.4128 21.1572 74.1509C21.1572 74.889 21.7556 75.4873 22.4937 75.4873Z" fill="#489E81"/>
<path d="M28.1782 75.4873C28.9163 75.4873 29.5147 74.889 29.5147 74.1509C29.5147 73.4128 28.9163 72.8145 28.1782 72.8145C27.4401 72.8145 26.8418 73.4128 26.8418 74.1509C26.8418 74.889 27.4401 75.4873 28.1782 75.4873Z" fill="#489E81"/>
<path d="M33.8618 75.4873C34.5999 75.4873 35.1982 74.889 35.1982 74.1509C35.1982 73.4128 34.5999 72.8145 33.8618 72.8145C33.1237 72.8145 32.5254 73.4128 32.5254 74.1509C32.5254 74.889 33.1237 75.4873 33.8618 75.4873Z" fill="#489E81"/>
<path d="M39.5464 75.4873C40.2845 75.4873 40.8828 74.889 40.8828 74.1509C40.8828 73.4128 40.2845 72.8145 39.5464 72.8145C38.8083 72.8145 38.21 73.4128 38.21 74.1509C38.21 74.889 38.8083 75.4873 39.5464 75.4873Z" fill="#489E81"/>
<path d="M45.231 75.4873C45.9691 75.4873 46.5674 74.889 46.5674 74.1509C46.5674 73.4128 45.9691 72.8145 45.231 72.8145C44.4929 72.8145 43.8945 73.4128 43.8945 74.1509C43.8945 74.889 44.4929 75.4873 45.231 75.4873Z" fill="#489E81"/>
<path d="M50.9155 75.4873C51.6536 75.4873 52.2519 74.889 52.2519 74.1509C52.2519 73.4128 51.6536 72.8145 50.9155 72.8145C50.1774 72.8145 49.5791 73.4128 49.5791 74.1509C49.5791 74.889 50.1774 75.4873 50.9155 75.4873Z" fill="#489E81"/>
<path d="M56.6011 75.4873C57.3392 75.4873 57.9375 74.889 57.9375 74.1509C57.9375 73.4128 57.3392 72.8145 56.6011 72.8145C55.863 72.8145 55.2646 73.4128 55.2646 74.1509C55.2646 74.889 55.863 75.4873 56.6011 75.4873Z" fill="#489E81"/>
<path d="M62.2856 75.4873C63.0237 75.4873 63.6221 74.889 63.6221 74.1509C63.6221 73.4128 63.0237 72.8145 62.2856 72.8145C61.5476 72.8145 60.9492 73.4128 60.9492 74.1509C60.9492 74.889 61.5476 75.4873 62.2856 75.4873Z" fill="#489E81"/>
<path d="M67.9702 75.4873C68.7083 75.4873 69.3066 74.889 69.3066 74.1509C69.3066 73.4128 68.7083 72.8145 67.9702 72.8145C67.2321 72.8145 66.6338 73.4128 66.6338 74.1509C66.6338 74.889 67.2321 75.4873 67.9702 75.4873Z" fill="#489E81"/>
<path d="M73.6548 75.4873C74.3929 75.4873 74.9912 74.889 74.9912 74.1509C74.9912 73.4128 74.3929 72.8145 73.6548 72.8145C72.9167 72.8145 72.3184 73.4128 72.3184 74.1509C72.3184 74.889 72.9167 75.4873 73.6548 75.4873Z" fill="#489E81"/>
<path d="M61.8235 20.2881H23.1763C21.5837 20.2881 20.2881 21.5837 20.2881 23.1763V39.1797C20.2881 39.8673 20.8456 40.4248 21.5332 40.4248C22.2208 40.4248 22.7783 39.8673 22.7783 39.1797V23.1763C22.7783 22.9568 22.957 22.7783 23.1763 22.7783H61.8235C62.043 22.7783 62.2215 22.9568 62.2215 23.1763V39.1797C62.2215 39.8673 62.779 40.4248 63.4666 40.4248C64.1542 40.4248 64.7117 39.8673 64.7117 39.1797V23.1763C64.7117 21.5837 63.4161 20.2881 61.8235 20.2881Z" fill="#489E81"/>
<path d="M63.4668 44.5752C62.7791 44.5752 62.2216 45.1327 62.2216 45.8203V53.4217C62.2216 53.722 62.0993 54.0155 61.8861 54.2268L54.1528 61.8931C53.9391 62.1049 53.6556 62.2216 53.3546 62.2216H23.1763C22.9568 62.2216 22.7783 62.0432 22.7783 61.8237V45.8203C22.7783 45.1327 22.2208 44.5752 21.5332 44.5752C20.8456 44.5752 20.2881 45.1327 20.2881 45.8203V61.8237C20.2881 63.4163 21.5838 64.7119 23.1763 64.7119H53.3546C54.3166 64.7119 55.2228 64.3388 55.9059 63.6615L63.6393 55.9952C64.3209 55.3196 64.7119 54.3814 64.7119 53.4217V45.8203C64.7119 45.1327 64.1546 44.5752 63.4668 44.5752Z" fill="#489E81"/>
<path d="M83.7549 24.3736C84.4425 24.3736 85 23.8161 85 23.1285C85 22.4408 84.4425 21.8834 83.7549 21.8834H80.1724V14.6879H83.7549C84.4425 14.6879 85 14.1304 85 13.4428C85 12.7551 84.4425 12.1977 83.7549 12.1977H80.1724V9.74844C80.1724 7.03508 77.9649 4.82757 75.2516 4.82757H72.8023V1.24512C72.8023 0.55748 72.2449 0 71.5572 0C70.8696 0 70.3121 0.55748 70.3121 1.24512V4.82757H63.1166V1.24512C63.1166 0.55748 62.5592 0 61.8715 0C61.1839 0 60.6264 0.55748 60.6264 1.24512V4.82757H53.4308V1.24512C53.4308 0.55748 52.8733 0 52.1857 0C51.498 0 50.9406 0.55748 50.9406 1.24512V4.82757H43.7451V1.24512C43.7451 0.55748 43.1876 0 42.5 0C41.8124 0 41.2549 0.55748 41.2549 1.24512V4.82757H34.0594V1.24512C34.0594 0.55748 33.502 0 32.8143 0C32.1267 0 31.5692 0.55748 31.5692 1.24512V4.82757H24.3736V1.24512C24.3736 0.55748 23.8161 0 23.1285 0C22.4408 0 21.8834 0.55748 21.8834 1.24512V4.82757H14.6879V1.24512C14.6879 0.55748 14.1304 0 13.4428 0C12.7551 0 12.1977 0.55748 12.1977 1.24512V4.82757H9.74844C7.03508 4.82757 4.82757 7.03508 4.82757 9.74844V12.1977H1.24512C0.55748 12.1977 0 12.7551 0 13.4428C0 14.1304 0.55748 14.6879 1.24512 14.6879H4.82757V21.8834H1.24512C0.55748 21.8834 0 22.4408 0 23.1285C0 23.8161 0.55748 24.3736 1.24512 24.3736H4.82757V31.5692H1.24512C0.55748 31.5692 0 32.1267 0 32.8143C0 33.502 0.55748 34.0594 1.24512 34.0594H4.82757V41.2549H1.24512C0.55748 41.2549 0 41.8124 0 42.5C0 43.1876 0.55748 43.7451 1.24512 43.7451H4.82757V50.9406H1.24512C0.55748 50.9406 0 51.498 0 52.1857C0 52.8733 0.55748 53.4308 1.24512 53.4308H4.82757V60.6264H1.24512C0.55748 60.6264 0 61.1839 0 61.8715C0 62.5592 0.55748 63.1166 1.24512 63.1166H4.82757V70.3121H1.24512C0.55748 70.3121 0 70.8696 0 71.5572C0 72.2449 0.55748 72.8023 1.24512 72.8023H4.82757V75.2516C4.82757 77.9649 7.03508 80.1724 9.74844 80.1724H12.1977V83.7549C12.1977 84.4425 12.7551 85 13.4428 85C14.1304 85 14.6879 84.4425 14.6879 83.7549V80.1724H21.8834V83.7549C21.8834 84.4425 22.4408 85 23.1285 85C23.8161 85 24.3736 84.4425 24.3736 83.7549V80.1724H31.5692V83.7549C31.5692 84.4425 32.1267 85 32.8143 85C33.502 85 34.0594 84.4425 34.0594 83.7549V80.1724H41.2549V83.7549C41.2549 84.4425 41.8124 85 42.5 85C43.1876 85 43.7451 84.4425 43.7451 83.7549V80.1724H50.9406V83.7549C50.9406 84.4425 51.498 85 52.1857 85C52.8733 85 53.4308 84.4425 53.4308 83.7549V80.1724H60.6264V83.7549C60.6264 84.4425 61.1839 85 61.8715 85C62.5592 85 63.1166 84.4425 63.1166 83.7549V80.1724H70.3121V83.7549C70.3121 84.4425 70.8696 85 71.5572 85C72.2449 85 72.8023 84.4425 72.8023 83.7549V80.1724H75.2516C77.9649 80.1724 80.1724 77.9649 80.1724 75.2516V72.8023H83.7549C84.4425 72.8023 85 72.2449 85 71.5572C85 70.8696 84.4425 70.3121 83.7549 70.3121H80.1724V63.1166H83.7549C84.4425 63.1166 85 62.5592 85 61.8715C85 61.1839 84.4425 60.6264 83.7549 60.6264H80.1724V53.4308H83.7549C84.4425 53.4308 85 52.8733 85 52.1857C85 51.498 84.4425 50.9406 83.7549 50.9406H80.1724V43.7451H83.7549C84.4425 43.7451 85 43.1876 85 42.5C85 41.8124 84.4425 41.2549 83.7549 41.2549H80.1724V34.0594H83.7549C84.4425 34.0594 85 33.502 85 32.8143C85 32.1267 84.4425 31.5692 83.7549 31.5692H80.1724V24.3736H83.7549ZM77.6822 13.4411C77.6822 13.4416 77.6822 13.4421 77.6822 13.4428C77.6822 13.4434 77.6822 13.4438 77.6822 13.4444V23.127C77.6822 23.1275 77.6822 23.128 77.6822 23.1286C77.6822 23.1293 77.6822 23.1296 77.6822 23.1303V32.8128C77.6822 32.8133 77.6822 32.8138 77.6822 32.8145C77.6822 32.8151 77.6822 32.8155 77.6822 32.8161V42.4987C77.6822 42.4992 77.6822 42.4997 77.6822 42.5003C77.6822 42.501 77.6822 42.5013 77.6822 42.502V52.1845C77.6822 52.185 77.6822 52.1855 77.6822 52.1862C77.6822 52.1868 77.6822 52.1872 77.6822 52.1878V61.8704C77.6822 61.8709 77.6822 61.8714 77.6822 61.872C77.6822 61.8727 77.6822 61.873 77.6822 61.8737V71.5562C77.6822 71.5567 77.6822 71.5572 77.6822 71.5579C77.6822 71.5585 77.6822 71.5589 77.6822 71.5595V75.2522C77.6822 76.5925 76.5918 77.6829 75.2516 77.6829H9.74844C8.40819 77.6829 7.3178 76.5925 7.3178 75.2522V9.74844C7.3178 8.40819 8.40819 7.3178 9.74844 7.3178H75.2516C76.5918 7.3178 77.6822 8.40819 77.6822 9.74844V13.4411Z" fill="#489E81"/>
</svg>
