<svg width="24" height="24" viewBox="0 0 24 24" fill="none" xmlns="http://www.w3.org/2000/svg">
<path d="M10.788 3.1031C11.283 2.0991 12.714 2.0991 13.209 3.1031L15.567 7.8801L20.84 8.6461C21.947 8.8071 22.389 10.1681 21.588 10.9491L17.772 14.6691L18.673 19.9191C18.863 21.0221 17.705 21.8631 16.714 21.3431L12.758 19.2631C12.899 18.7611 12.981 18.2361 12.998 17.6931L17.143 19.8731L16.281 14.8441C16.244 14.6284 16.2599 14.4069 16.3275 14.1987C16.3951 13.9905 16.5123 13.8019 16.669 13.6491L20.323 10.0871L15.273 9.3531C15.0566 9.3216 14.851 9.23798 14.674 9.10942C14.497 8.98086 14.3539 8.81122 14.257 8.6151L11.998 4.0391L9.74003 8.6151C9.64314 8.81122 9.50005 8.98086 9.32306 9.10942C9.14608 9.23798 8.9405 9.3216 8.72403 9.3531L3.67403 10.0871L4.83203 11.2161C4.30228 11.3563 3.79253 11.5633 3.31503 11.8321L2.40903 10.9491C1.60803 10.1691 2.05003 8.8071 3.15703 8.6461L8.43003 7.8801L10.788 3.1031Z" fill="#5CD5A8"/>
<path d="M12 17.5C12 18.2223 11.8577 18.9375 11.5813 19.6048C11.3049 20.272 10.8998 20.8784 10.3891 21.3891C9.87837 21.8998 9.27205 22.3049 8.60476 22.5813C7.93747 22.8577 7.22227 23 6.5 23C5.77773 23 5.06253 22.8577 4.39524 22.5813C3.72795 22.3049 3.12163 21.8998 2.61091 21.3891C2.10019 20.8784 1.69506 20.272 1.41866 19.6048C1.14226 18.9375 1 18.2223 1 17.5C1 16.0413 1.57946 14.6424 2.61091 13.6109C3.64236 12.5795 5.04131 12 6.5 12C7.95869 12 9.35764 12.5795 10.3891 13.6109C11.4205 14.6424 12 16.0413 12 17.5ZM3.5 17C3.36739 17 3.24021 17.0527 3.14645 17.1464C3.05268 17.2402 3 17.3674 3 17.5C3 17.6326 3.05268 17.7598 3.14645 17.8536C3.24021 17.9473 3.36739 18 3.5 18H8.293L6.646 19.646C6.55211 19.7399 6.49937 19.8672 6.49937 20C6.49937 20.1328 6.55211 20.2601 6.646 20.354C6.73989 20.4479 6.86722 20.5006 7 20.5006C7.13278 20.5006 7.26011 20.4479 7.354 20.354L9.854 17.854C9.90056 17.8076 9.93751 17.7524 9.96271 17.6916C9.98792 17.6309 10.0009 17.5658 10.0009 17.5C10.0009 17.4342 9.98792 17.3691 9.96271 17.3084C9.93751 17.2476 9.90056 17.1924 9.854 17.146L7.354 14.646C7.26011 14.5521 7.13278 14.4994 7 14.4994C6.86722 14.4994 6.73989 14.5521 6.646 14.646C6.55211 14.7399 6.49937 14.8672 6.49937 15C6.49937 15.1328 6.55211 15.2601 6.646 15.354L8.293 17H3.5Z" fill="#5CD5A8"/>
</svg>
